# Blender 4.1.1
# www.blender.org
mtllib Cube.mtl
o Cube
v 21.823355 39.165199 -21.823366
v 21.823355 -4.481516 -21.823355
v 21.823355 39.165199 21.823343
v 21.823355 -4.481509 21.823355
v -21.823355 39.165199 -21.823366
v -21.823355 -4.481516 -21.823355
v -21.823355 39.165199 21.823343
v -21.823355 -4.481509 21.823355
vn 1.0000 -0.0000 -0.0000
vn -0.0000 -0.0000 1.0000
vn -1.0000 -0.0000 -0.0000
vn -0.0000 -0.0000 -1.0000
vn -0.0000 1.0000 -0.0000
vn -0.0000 -1.0000 -0.0000
vt 0.003906 0.001953
vt 0.000000 1.001953
vt 1.000000 0.998047
vt 1.000000 0.000000
vt 1.000134 1.000134
vt 1.000134 -0.000134
vt -0.000134 -0.002087
vt -0.000134 1.000134
vt -0.001133 -0.003086
vt -0.001133 0.999180
vt 1.001133 0.999180
vt 1.001133 -0.003086
vt 0.003901 0.001948
vt 0.003901 0.994146
vt 0.996099 0.994146
vt 0.996099 0.001948
vt 0.004709 0.004709
vt 0.004709 0.999197
vt 0.999197 0.999197
vt 0.999197 0.004709
vt -0.002670 -0.000717
vt -0.002670 0.996810
vt 0.994857 0.996810
vt 0.994857 -0.000717
s 0
usemtl Material.001
f 1/1/1 3/2/1 4/3/1 2/4/1
f 3/5/2 7/6/2 8/7/2 4/8/2
f 7/9/3 5/10/3 6/11/3 8/12/3
f 5/13/4 1/14/4 2/15/4 6/16/4
f 3/17/5 1/18/5 5/19/5 7/20/5
f 8/21/6 6/22/6 2/23/6 4/24/6
