# Blender 4.4.0
# www.blender.org
mtllib Cube.mtl
o Cube
v -24.542139 -24.542137 24.542141
v -24.542139 24.542141 24.542137
v -24.542139 -24.542141 -24.542137
v -24.542139 24.542137 -24.542141
v 24.542139 -24.542137 24.542141
v 24.542139 24.542141 24.542137
v 24.542139 -24.542141 -24.542137
v 24.542139 24.542137 -24.542141
vn -1.0000 -0.0000 -0.0000
vn -0.0000 -0.0000 -1.0000
vn 1.0000 -0.0000 -0.0000
vn -0.0000 -0.0000 1.0000
vn -0.0000 -1.0000 -0.0000
vn -0.0000 1.0000 -0.0000
vt -0.000147 -0.003100
vt 1.000147 0.003100
vt 0.997047 1.000295
vt 0.002953 0.997195
vt 0.002953 0.005069
vt 1.006348 -0.001132
vt 0.997047 1.002264
vt -0.000147 0.999163
vt 0.002953 0.000837
vt 1.003248 0.000837
vt 1.000147 1.001132
vt 0.002953 0.994931
vt -0.000147 0.005906
vt 1.006348 0.002805
vt 1.000147 1.000000
vt 0.006053 0.996900
vt 0.000984 0.003937
vt 1.004380 -0.002264
vt 0.995079 0.998031
vt 0.004085 0.998031
vt 0.001821 -0.005364
vt 1.005216 0.000837
vt 1.002116 0.998031
vt 0.001821 0.998031
s 1
usemtl Material.001
f 1/1/1 2/2/1 4/3/1 3/4/1
f 3/5/2 4/6/2 8/7/2 7/8/2
f 7/9/3 8/10/3 6/11/3 5/12/3
f 5/13/4 6/14/4 2/15/4 1/16/4
f 3/17/5 7/18/5 5/19/5 1/20/5
f 8/21/6 4/22/6 2/23/6 6/24/6
